<svg width="149" height="144" viewBox="0 0 149 144" fill="none" xmlns="http://www.w3.org/2000/svg">
<path d="M72 137C72 140.866 68.8587 144.035 65.011 143.66C57.9529 142.972 51.0222 141.243 44.4468 138.519C35.7113 134.901 27.7741 129.598 21.0883 122.912C14.4025 116.226 9.09901 108.289 5.48067 99.5532C1.86233 90.8178 -3.97382e-06 81.4552 -3.14722e-06 72C-2.32062e-06 62.5448 1.86233 53.1822 5.48067 44.4468C9.09901 35.7113 14.4025 27.7741 21.0883 21.0883C27.7741 14.4025 35.7114 9.099 44.4468 5.48067C51.0222 2.75706 57.9529 1.02839 65.011 0.340007C68.8587 -0.035266 72 3.134 72 7L72 72L72 137Z" fill="white"/>
<path opacity="0.5" d="M80.0001 6.67576C80.0001 2.98884 82.9961 -0.0336949 86.6657 0.324083C102.43 1.86109 117.257 8.81503 128.554 20.1115C139.85 31.408 146.804 46.2352 148.341 61.9994C148.699 65.6689 145.676 68.6649 141.989 68.6649L86.6759 68.6649C82.989 68.6649 80.0001 65.6761 80.0001 61.9892L80.0001 6.67576Z" fill="white"/>
<path opacity="0.5" d="M142.004 75.3351C145.691 75.3351 148.713 78.3311 148.356 82.0006C146.819 97.7648 139.865 112.592 128.568 123.889C117.272 135.185 102.444 142.139 86.6803 143.676C83.0108 144.034 80.0148 141.011 80.0148 137.324L80.0148 82.0108C80.0148 78.3239 83.0036 75.3351 86.6905 75.3351L142.004 75.3351Z" fill="white"/>
</svg>
